<svg xmlns="http://www.w3.org/2000/svg" viewBox="0 0 24 30" x="0px" y="0px"><title>plug type  K</title><g data-name="plug type  K"><path d="M19,23H5a4,4,0,0,1-4-4V5A4,4,0,0,1,5,1H19a4,4,0,0,1,4,4V19A4,4,0,0,1,19,23ZM5,3A2,2,0,0,0,3,5V19a2,2,0,0,0,2,2H19a2,2,0,0,0,2-2V5a2,2,0,0,0-2-2Z"/><path d="M12,20a8,8,0,1,1,8-8A8,8,0,0,1,12,20ZM12,6a6,6,0,1,0,6,6A6,6,0,0,0,12,6Z"/><circle cx="9" cy="11" r="1"/><circle cx="15" cy="11" r="1"/><path d="M13,16H11a1,1,0,0,1,0-2h2a1,1,0,0,1,0,2Z"/></g><text x="0" y="39" fill="#000000" font-size="5px" font-weight="bold" font-family="'Helvetica Neue', Helvetica, Arial-Unicode, Arial, Sans-serif">Created by tezar tantular</text><text x="0" y="44" fill="#000000" font-size="5px" font-weight="bold" font-family="'Helvetica Neue', Helvetica, Arial-Unicode, Arial, Sans-serif">from the Noun Project</text></svg>